<?xml version="1.0" encoding="UTF-8" standalone="no"?>
<!DOCTYPE svg PUBLIC "-//W3C//DTD SVG 1.1//EN" "http://www.w3.org/Graphics/SVG/1.1/DTD/svg11.dtd">
<svg width="100%" height="100%" viewBox="0 0 4134 5197" version="1.1" xmlns="http://www.w3.org/2000/svg" xmlns:xlink="http://www.w3.org/1999/xlink" xml:space="preserve" xmlns:serif="http://www.serif.com/" style="fill-rule:evenodd;clip-rule:evenodd;">
    <g transform="matrix(0.930421,0,0,1.32917,889.253,123.057)">
        <rect x="377.146" y="262.858" width="1777.2" height="444.3" style="fill:rgb(235,235,235);"/>
    </g>
    <g transform="matrix(0.930421,0,0,1.32927,889.93,3548.18)">
        <rect x="377.146" y="262.858" width="1777.2" height="444.3" style="fill:rgb(235,235,235);"/>
    </g>
    <g transform="matrix(0.332293,0,0,5.31669,229.008,-98.3221)">
        <rect x="377.146" y="262.858" width="1777.2" height="444.3" style="fill:rgb(235,235,235);"/>
    </g>
    <g transform="matrix(0.332293,0,0,5.31669,3063.65,-98.3221)">
        <rect x="377.146" y="262.858" width="1777.2" height="444.3" style="fill:rgb(235,235,235);"/>
    </g>
    <g transform="matrix(4.00756e-17,-0.654485,0.654485,4.00756e-17,990.203,3181.63)">
        <g transform="matrix(76.396,0,0,76.396,1220.85,165.354)">
        </g>
        <text x="944.882px" y="165.354px" style="font-family:'ArialMT', 'Arial', sans-serif;font-size:76.396px;fill:rgb(147,146,146);">200 mm</text>
    </g>
    <g transform="matrix(0.930421,0,0,5.31669,889.253,-98.3221)">
        <rect x="377.146" y="262.858" width="1777.2" height="444.3" style="fill:rgb(235,235,235);"/>
    </g>
    <g transform="matrix(6.10915,0,0,6.32733,-621.924,2844.58)">
        <g>
            <g transform="matrix(1,0,0,1,102.713,3.07791)">
                <rect x="358" y="29" width="32" height="32" style="fill:rgb(232,224,216);stroke:rgb(153,153,153);stroke-width:0.5px;"/>
            </g>
            <g transform="matrix(1,0,0,1,476.712,49.0447)">
                <text x="-1.499px" y="0px" style="font-family:'ArialMT', 'Arial', sans-serif;font-size:4.5px;fill:rgb(170,170,170);">--</text>
            </g>
        </g>
        <g>
            <g transform="matrix(1,0,0,1,102.713,2.83454)">
                <rect x="250" y="65" width="32" height="32" style="fill:rgb(232,224,216);stroke:rgb(153,153,153);stroke-width:0.5px;"/>
            </g>
            <g transform="matrix(1,0,0,1,368.712,85.0002)">
                <text x="-1.499px" y="0px" style="font-family:'ArialMT', 'Arial', sans-serif;font-size:4.5px;fill:rgb(170,170,170);">--</text>
            </g>
        </g>
        <g>
            <g transform="matrix(1,0,0,1,102.713,2.83454)">
                <rect x="286" y="65" width="32" height="32" style="fill:rgb(232,224,216);stroke:rgb(153,153,153);stroke-width:0.5px;"/>
            </g>
            <g transform="matrix(1,0,0,1,404.712,85.199)">
                <text x="-1.499px" y="0px" style="font-family:'ArialMT', 'Arial', sans-serif;font-size:4.5px;fill:rgb(170,170,170);">--</text>
            </g>
        </g>
        <g>
            <g transform="matrix(1,0,0,1,102.713,2.83454)">
                <rect x="322" y="65" width="32" height="32" style="fill:rgb(232,224,216);stroke:rgb(153,153,153);stroke-width:0.5px;"/>
            </g>
            <g transform="matrix(1,0,0,1,440.712,85.0002)">
                <text x="-1.499px" y="0px" style="font-family:'ArialMT', 'Arial', sans-serif;font-size:4.5px;fill:rgb(170,170,170);">--</text>
            </g>
        </g>
        <g transform="matrix(1,0,0,1,0.4,-35.8052)">
            <g transform="matrix(1,0,0,1,102.713,2.83454)">
                <rect x="250" y="65" width="32" height="32" style="fill:rgb(232,224,216);stroke:rgb(153,153,153);stroke-width:0.5px;"/>
            </g>
            <g transform="matrix(1,0,0,1,368.712,85.0002)">
                <text x="-1.499px" y="0px" style="font-family:'ArialMT', 'Arial', sans-serif;font-size:4.5px;fill:rgb(170,170,170);">--</text>
            </g>
        </g>
        <g transform="matrix(1,0,0,1,0.4,-35.8052)">
            <g transform="matrix(1,0,0,1,102.713,2.83454)">
                <rect x="286" y="65" width="32" height="32" style="fill:rgb(232,224,216);stroke:rgb(153,153,153);stroke-width:0.5px;"/>
            </g>
            <g transform="matrix(1,0,0,1,404.712,85.199)">
                <text x="-1.499px" y="0px" style="font-family:'ArialMT', 'Arial', sans-serif;font-size:4.5px;fill:rgb(170,170,170);">--</text>
            </g>
        </g>
        <g transform="matrix(1,0,0,1,0.4,-35.8052)">
            <g transform="matrix(1,0,0,1,102.713,2.83454)">
                <rect x="322" y="65" width="32" height="32" style="fill:rgb(232,224,216);stroke:rgb(153,153,153);stroke-width:0.5px;"/>
            </g>
            <g transform="matrix(1,0,0,1,440.712,85.0002)">
                <text x="-1.499px" y="0px" style="font-family:'ArialMT', 'Arial', sans-serif;font-size:4.5px;fill:rgb(170,170,170);">--</text>
            </g>
        </g>
        <g>
            <g transform="matrix(1,0,0,1,102.713,2.83454)">
                <rect x="358" y="65" width="32" height="32" style="fill:rgb(232,224,216);stroke:rgb(153,153,153);stroke-width:0.5px;"/>
            </g>
            <g transform="matrix(1,0,0,1,476.712,84.8013)">
                <text x="-1.499px" y="0px" style="font-family:'ArialMT', 'Arial', sans-serif;font-size:4.5px;fill:rgb(170,170,170);">--</text>
            </g>
        </g>
        <g transform="matrix(1,0,0,1,71.4667,-5.68434e-14)">
            <g transform="matrix(1,0,0,1,102.713,2.83454)">
                <rect x="322" y="65" width="32" height="32" style="fill:rgb(232,224,216);stroke:rgb(153,153,153);stroke-width:0.5px;"/>
            </g>
            <g transform="matrix(1,0,0,1,440.712,85.0002)">
                <text x="-1.499px" y="0px" style="font-family:'ArialMT', 'Arial', sans-serif;font-size:4.5px;fill:rgb(170,170,170);">--</text>
            </g>
        </g>
        <g transform="matrix(1,0,0,1,71.8667,-35.8052)">
            <g transform="matrix(1,0,0,1,102.713,2.83454)">
                <rect x="322" y="65" width="32" height="32" style="fill:rgb(232,224,216);stroke:rgb(153,153,153);stroke-width:0.5px;"/>
            </g>
            <g transform="matrix(1,0,0,1,440.712,85.0002)">
                <text x="-1.499px" y="0px" style="font-family:'ArialMT', 'Arial', sans-serif;font-size:4.5px;fill:rgb(170,170,170);">--</text>
            </g>
        </g>
    </g>
    <g transform="matrix(1,0,0,1,989.341,475.623)">
        <g transform="matrix(6.10915,0,0,6.32733,897.434,1956.41)">
            <circle cx="30" cy="50" r="12" style="fill:rgb(136,136,136);stroke:rgb(51,51,51);stroke-width:0.6px;"/>
            <circle cx="30" cy="50" r="3" style="fill:rgb(85,85,85);"/>
            <g transform="matrix(1,0,0,1,29.7778,70.5544)">
                <g transform="matrix(6.5,0,0,6.5,2.16772,0)">
                </g>
                <text x="-2.168px" y="0px" style="font-family:'ArialMT', 'Arial', sans-serif;font-size:6.5px;fill:rgb(51,51,51);">B</text>
            </g>
        </g>
        <g transform="matrix(6.10915,0,0,6.32733,454.179,1956.41)">
            <circle cx="30" cy="50" r="12" style="fill:rgb(136,136,136);stroke:rgb(51,51,51);stroke-width:0.6px;"/>
            <circle cx="30" cy="50" r="3" style="fill:rgb(85,85,85);"/>
            <g transform="matrix(1,0,0,1,29.9355,70.5544)">
                <g transform="matrix(6.5,0,0,6.5,2.16772,0)">
                </g>
                <text x="-2.168px" y="0px" style="font-family:'ArialMT', 'Arial', sans-serif;font-size:6.5px;fill:rgb(51,51,51);">A</text>
            </g>
        </g>
        <g transform="matrix(6.10915,0,0,6.32733,1340.69,1589.43)">
            <circle cx="30" cy="108" r="12" style="fill:rgb(136,136,136);stroke:rgb(51,51,51);stroke-width:0.6px;"/>
            <circle cx="30" cy="108" r="3" style="fill:rgb(85,85,85);"/>
            <g transform="matrix(1,0,0,1,30.1936,128.554)">
                <g transform="matrix(6.5,0,0,6.5,2.34705,0)">
                </g>
                <text x="-2.347px" y="0px" style="font-family:'ArialMT', 'Arial', sans-serif;font-size:6.5px;fill:rgb(51,51,51);">C</text>
            </g>
        </g>
    </g>
    <g transform="matrix(1,0,0,1,986.22,425.197)">
        <g transform="matrix(6.10915,0,0,6.32733,897.434,1672.92)">
            <circle cx="30" cy="50" r="12" style="fill:rgb(136,136,136);stroke:rgb(51,51,51);stroke-width:0.6px;"/>
            <circle cx="30" cy="50" r="3" style="fill:rgb(85,85,85);"/>
            <g transform="matrix(1,0,0,1,29.7778,70.5544)">
                <text x="-9.03px" y="0px" style="font-family:'ArialMT', 'Arial', sans-serif;font-size:6.5px;fill:rgb(51,51,51);">Nav-Y</text>
                <g transform="matrix(3.95111,0,0,3.95111,6.0376,3.95111)">
                </g>
                <text x="-6.038px" y="3.951px" style="font-family:'ArialMT', 'Arial', sans-serif;font-size:3.951px;fill:rgb(51,51,51);">(Enter)</text>
            </g>
        </g>
        <g transform="matrix(6.10915,0,0,6.32733,454.179,1672.92)">
            <circle cx="30" cy="50" r="12" style="fill:rgb(136,136,136);stroke:rgb(51,51,51);stroke-width:0.6px;"/>
            <circle cx="30" cy="50" r="3" style="fill:rgb(85,85,85);"/>
            <g transform="matrix(1,0,0,1,29.9355,70.5544)">
                <text x="-9.03px" y="0px" style="font-family:'ArialMT', 'Arial', sans-serif;font-size:6.5px;fill:rgb(51,51,51);">Nav-X</text>
                <g transform="matrix(3.95111,0,0,3.95111,5.7077,3.95111)">
                </g>
                <text x="-5.708px" y="3.951px" style="font-family:'ArialMT', 'Arial', sans-serif;font-size:3.951px;fill:rgb(51,51,51);">(Back)</text>
            </g>
        </g>
        <g transform="matrix(6.10915,0,0,6.32733,1340.69,1305.94)">
            <circle cx="30" cy="108" r="12" style="fill:rgb(136,136,136);stroke:rgb(51,51,51);stroke-width:0.6px;"/>
            <circle cx="30" cy="108" r="3" style="fill:rgb(85,85,85);"/>
            <g transform="matrix(1,0,0,1,30.1936,128.554)">
                <text x="-5.6px" y="0px" style="font-family:'ArialMT', 'Arial', sans-serif;font-size:6.5px;fill:rgb(51,51,51);">Edit</text>
                <g transform="matrix(3.95111,0,0,3.95111,6.25753,3.95111)">
                </g>
                <text x="-6.258px" y="3.951px" style="font-family:'ArialMT', 'Arial', sans-serif;font-size:3.951px;fill:rgb(51,51,51);">(Menu)</text>
            </g>
        </g>
    </g>
    <g transform="matrix(5.90551,0,0,5.90551,1227.27,1400.21)">
        <g transform="matrix(1,0,0,1,1.18154,-6.10192)">
            <rect x="50" y="29" width="186" height="112" style="fill:rgb(26,42,58);stroke:rgb(51,51,51);stroke-width:0.8px;"/>
        </g>
        <g transform="matrix(1,0,0,1,143,82)">
            <text x="-17.886px" y="0px" style="font-family:'Arial-BoldMT', 'Arial', sans-serif;font-weight:700;font-size:9px;fill:rgb(68,170,136);">4.3&quot; TFT</text>
        </g>
        <g transform="matrix(1,0,0,1,143,96)">
            <text x="-15.924px" y="0px" style="font-family:'ArialMT', 'Arial', sans-serif;font-size:6px;fill:rgb(102,170,187);">93 × 56 mm</text>
        </g>
        <g transform="matrix(1,0,0,1,143,108)">
            <text x="-24.844px" y="0px" style="font-family:'ArialMT', 'Arial', sans-serif;font-size:5.5px;fill:rgb(85,136,153);">480 × 272 (RA8875)</text>
        </g>
    </g>
    <g transform="matrix(-0.0236666,6.1091,-6.32729,-0.0245118,1165.57,-96.0828)">
        <g transform="matrix(1,0,0,0.270312,0,39.774)">
            <rect x="415" y="35" width="30" height="20" style="fill:rgb(192,184,168);stroke:rgb(85,85,85);stroke-width:0.6px;"/>
        </g>
        <g transform="matrix(1,0,0,1,395.445,54.079)">
            <text x="-12.462px" y="0px" style="font-family:'ArialMT', 'Arial', sans-serif;font-size:6.5px;fill:rgb(51,51,51);">SD Card</text>
        </g>
    </g>
    <g transform="matrix(1,0,0,1,938.976,-230.315)">
        <g transform="matrix(1.125,0,0,1.125,-112.205,-47.2441)">
            <circle cx="519.685" cy="897.638" r="47.244"/>
            <path d="M519.685,850.394C545.76,850.394 566.929,871.563 566.929,897.638C566.929,923.713 545.76,944.882 519.685,944.882C493.61,944.882 472.441,923.713 472.441,897.638C472.441,871.563 493.61,850.394 519.685,850.394ZM519.685,862.26C500.159,862.26 484.307,878.112 484.307,897.638C484.307,917.163 500.159,933.016 519.685,933.016C539.211,933.016 555.063,917.163 555.063,897.638C555.063,878.112 539.211,862.26 519.685,862.26Z" style="fill:rgb(147,146,146);"/>
        </g>
        <g transform="matrix(1.125,0,0,1.125,135.827,-47.2441)">
            <circle cx="519.685" cy="897.638" r="47.244"/>
            <path d="M519.685,850.394C545.76,850.394 566.929,871.563 566.929,897.638C566.929,923.713 545.76,944.882 519.685,944.882C493.61,944.882 472.441,923.713 472.441,897.638C472.441,871.563 493.61,850.394 519.685,850.394ZM519.685,862.26C500.159,862.26 484.307,878.112 484.307,897.638C484.307,917.163 500.159,933.016 519.685,933.016C539.211,933.016 555.063,917.163 555.063,897.638C555.063,878.112 539.211,862.26 519.685,862.26Z" style="fill:rgb(147,146,146);"/>
        </g>
        <g transform="matrix(1.125,0,0,1.125,-112.205,171.26)">
            <circle cx="519.685" cy="897.638" r="47.244"/>
            <path d="M519.685,850.394C545.76,850.394 566.929,871.563 566.929,897.638C566.929,923.713 545.76,944.882 519.685,944.882C493.61,944.882 472.441,923.713 472.441,897.638C472.441,871.563 493.61,850.394 519.685,850.394ZM519.685,862.26C500.159,862.26 484.307,878.112 484.307,897.638C484.307,917.163 500.159,933.016 519.685,933.016C539.211,933.016 555.063,917.163 555.063,897.638C555.063,878.112 539.211,862.26 519.685,862.26Z" style="fill:rgb(147,146,146);"/>
        </g>
        <g transform="matrix(1.125,0,0,1.125,135.827,171.26)">
            <circle cx="519.685" cy="897.638" r="47.244"/>
            <path d="M519.685,850.394C545.76,850.394 566.929,871.563 566.929,897.638C566.929,923.713 545.76,944.882 519.685,944.882C493.61,944.882 472.441,923.713 472.441,897.638C472.441,871.563 493.61,850.394 519.685,850.394ZM519.685,862.26C500.159,862.26 484.307,878.112 484.307,897.638C484.307,917.163 500.159,933.016 519.685,933.016C539.211,933.016 555.063,917.163 555.063,897.638C555.063,878.112 539.211,862.26 519.685,862.26Z" style="fill:rgb(147,146,146);"/>
        </g>
    </g>
    <g transform="matrix(1,0,0,1,1978.35,-230.315)">
        <g transform="matrix(1.125,0,0,1.125,-112.205,-47.2441)">
            <circle cx="519.685" cy="897.638" r="47.244"/>
            <path d="M519.685,850.394C545.76,850.394 566.929,871.563 566.929,897.638C566.929,923.713 545.76,944.882 519.685,944.882C493.61,944.882 472.441,923.713 472.441,897.638C472.441,871.563 493.61,850.394 519.685,850.394ZM519.685,862.26C500.159,862.26 484.307,878.112 484.307,897.638C484.307,917.163 500.159,933.016 519.685,933.016C539.211,933.016 555.063,917.163 555.063,897.638C555.063,878.112 539.211,862.26 519.685,862.26Z" style="fill:rgb(147,146,146);"/>
        </g>
        <g transform="matrix(1.125,0,0,1.125,135.827,-47.2441)">
            <circle cx="519.685" cy="897.638" r="47.244"/>
            <path d="M519.685,850.394C545.76,850.394 566.929,871.563 566.929,897.638C566.929,923.713 545.76,944.882 519.685,944.882C493.61,944.882 472.441,923.713 472.441,897.638C472.441,871.563 493.61,850.394 519.685,850.394ZM519.685,862.26C500.159,862.26 484.307,878.112 484.307,897.638C484.307,917.163 500.159,933.016 519.685,933.016C539.211,933.016 555.063,917.163 555.063,897.638C555.063,878.112 539.211,862.26 519.685,862.26Z" style="fill:rgb(147,146,146);"/>
        </g>
        <g transform="matrix(1.125,0,0,1.125,-112.205,171.26)">
            <circle cx="519.685" cy="897.638" r="47.244"/>
            <path d="M519.685,850.394C545.76,850.394 566.929,871.563 566.929,897.638C566.929,923.713 545.76,944.882 519.685,944.882C493.61,944.882 472.441,923.713 472.441,897.638C472.441,871.563 493.61,850.394 519.685,850.394ZM519.685,862.26C500.159,862.26 484.307,878.112 484.307,897.638C484.307,917.163 500.159,933.016 519.685,933.016C539.211,933.016 555.063,917.163 555.063,897.638C555.063,878.112 539.211,862.26 519.685,862.26Z" style="fill:rgb(147,146,146);"/>
        </g>
        <g transform="matrix(1.125,0,0,1.125,135.827,171.26)">
            <circle cx="519.685" cy="897.638" r="47.244"/>
            <path d="M519.685,850.394C545.76,850.394 566.929,871.563 566.929,897.638C566.929,923.713 545.76,944.882 519.685,944.882C493.61,944.882 472.441,923.713 472.441,897.638C472.441,871.563 493.61,850.394 519.685,850.394ZM519.685,862.26C500.159,862.26 484.307,878.112 484.307,897.638C484.307,917.163 500.159,933.016 519.685,933.016C539.211,933.016 555.063,917.163 555.063,897.638C555.063,878.112 539.211,862.26 519.685,862.26Z" style="fill:rgb(147,146,146);"/>
        </g>
    </g>
    <g transform="matrix(0.857143,0,0,0.857143,1577.36,-300.879)">
        <g transform="matrix(0.875,0,0,0.875,-23.622,395.669)">
            <circle cx="519.685" cy="897.638" r="47.244"/>
            <path d="M519.685,850.394C545.76,850.394 566.929,871.563 566.929,897.638C566.929,923.713 545.76,944.882 519.685,944.882C493.61,944.882 472.441,923.713 472.441,897.638C472.441,871.563 493.61,850.394 519.685,850.394ZM519.685,868.193C503.434,868.193 490.24,881.387 490.24,897.638C490.24,913.889 503.434,927.082 519.685,927.082C535.936,927.082 549.13,913.889 549.13,897.638C549.13,881.387 535.936,868.193 519.685,868.193Z" style="fill:rgb(147,146,146);"/>
        </g>
        <g transform="matrix(0.875,0,0,0.875,253.937,395.669)">
            <circle cx="519.685" cy="897.638" r="47.244"/>
            <path d="M519.685,850.394C545.76,850.394 566.929,871.563 566.929,897.638C566.929,923.713 545.76,944.882 519.685,944.882C493.61,944.882 472.441,923.713 472.441,897.638C472.441,871.563 493.61,850.394 519.685,850.394ZM519.685,868.193C503.434,868.193 490.24,881.387 490.24,897.638C490.24,913.889 503.434,927.082 519.685,927.082C535.936,927.082 549.13,913.889 549.13,897.638C549.13,881.387 535.936,868.193 519.685,868.193Z" style="fill:rgb(147,146,146);"/>
        </g>
    </g>
    <g transform="matrix(6.10915,0,0,6.32733,-121.959,3817.88)">
        <g transform="matrix(0.785766,0,0,0.785766,459.436,51.5584)">
            <g transform="matrix(6.5,0,0,6.5,6.5,0)">
            </g>
            <text x="-6.5px" y="0px" style="font-family:'ArialMT', 'Arial', sans-serif;font-size:6.5px;fill:rgb(51,51,51);">ETH</text>
        </g>
        <g transform="matrix(0.930085,0,0,0.806966,71.1322,-1.50191)">
            <g transform="matrix(1,0,0,0.727426,353.489,13.3799)">
                <rect x="51" y="29" width="26" height="32" style="fill:none;stroke:rgb(85,85,85);stroke-width:0.8px;"/>
            </g>
            <g transform="matrix(0.686961,0,0,0.56407,-13.7117,-18.3288)">
                <path d="M635.824,102.311L644.072,102.311L644.072,131.995L611.313,131.995L611.313,102.311L619.561,102.311L619.561,97.167L635.824,97.167L635.824,102.311Z" style="fill:rgb(174,174,174);"/>
            </g>
        </g>
    </g>
    <g transform="matrix(6.10915,0,0,6.32733,1062.59,3748.34)">
        <g transform="matrix(1,0,0,0.727426,-0.0230858,16.9156)">
            <rect x="52" y="30" width="24" height="14" style="fill:rgb(204,204,204);stroke:rgb(85,85,85);stroke-width:0.6px;"/>
        </g>
        <g transform="matrix(1,0,0,0.381439,0,26.6606)">
            <rect x="51" y="29" width="26" height="32" style="fill:none;stroke:rgb(85,85,85);stroke-width:0.8px;"/>
        </g>
        <g transform="matrix(0.785766,0,0,0.785766,63.9083,56.389)">
            <g transform="matrix(6.5,0,0,6.5,16.7911,0)">
            </g>
            <text x="-16.791px" y="0px" style="font-family:'ArialMT', 'Arial', sans-serif;font-size:6.5px;fill:rgb(51,51,51);">MIDI HOST</text>
        </g>
    </g>
    <g transform="matrix(1,0,0,1,1020.85,354.331)">
        <g transform="matrix(4.6255,0,0,4.79069,-256.854,1266.16)">
            <circle cx="430" cy="81" r="10" style="fill:rgb(170,170,170);stroke:rgb(51,51,51);stroke-width:0.6px;"/>
            <circle cx="430" cy="81" r="2" style="fill:rgb(102,102,102);"/>
            <g transform="matrix(1,0,0,1,-6.83913,4.51689)">
                <path d="M430,73L434,75" style="fill:none;fill-rule:nonzero;stroke:rgb(85,85,85);stroke-width:1px;"/>
            </g>
            <g transform="matrix(1,0,0,1,430.074,96.1815)">
                <g transform="matrix(4.74133,0,0,4.74133,4.74365,0)">
                </g>
                <text x="-4.744px" y="0px" style="font-family:'ArialMT', 'Arial', sans-serif;font-size:4.741px;fill:rgb(51,51,51);">VOL</text>
            </g>
        </g>
        <g transform="matrix(4.6255,0,0,4.79069,-257.297,857.698)">
            <g transform="matrix(1,0,0,1,0.0959167,-1.04668)">
                <circle cx="430" cy="117" r="9" style="fill:rgb(174,174,174);stroke:rgb(34,34,34);stroke-width:0.6px;"/>
            </g>
            <g transform="matrix(2.42227,0,0,2.42227,-611.479,-167.452)">
                <circle cx="430" cy="117" r="3" style="fill:rgb(68,68,68);"/>
            </g>
            <g transform="matrix(0.73399,0,0,0.73399,430.037,131.052)">
                <g transform="matrix(6.5,0,0,6.5,13.7252,0)">
                </g>
                <text x="-13.725px" y="0px" style="font-family:'ArialMT', 'Arial', sans-serif;font-size:6.5px;fill:rgb(51,51,51);">PHONES</text>
            </g>
        </g>
    </g>
    <g transform="matrix(3.747e-16,6.10915,-6.32733,4.16334e-16,1127.99,992.203)">
        <g transform="matrix(0.918333,0,-2.70617e-18,0.56,-6.67666,20.1655)">
            <path d="M152,48.475L152,49.525C152,51.995 150.734,54 149.174,54L134.826,54C133.266,54 132,51.995 132,49.525L132,48.475C132,46.005 133.266,44 134.826,44L149.174,44C150.734,44 152,46.005 152,48.475Z" style="fill:rgb(221,221,221);"/>
            <path d="M152,48.475L152,49.525C152,51.995 150.734,54 149.174,54L134.826,54C133.266,54 132,51.995 132,49.525L132,48.475C132,46.005 133.266,44 134.826,44L149.174,44C150.734,44 152,46.005 152,48.475ZM149.816,48.475C149.816,47.913 149.529,47.457 149.174,47.457L134.826,47.457C134.471,47.457 134.184,47.913 134.184,48.475L134.184,49.525C134.184,50.087 134.471,50.543 134.826,50.543L149.174,50.543C149.529,50.543 149.816,50.087 149.816,49.525L149.816,48.475Z" style="fill:rgb(85,85,85);"/>
        </g>
        <g transform="matrix(0.793248,0,0,0.793248,108.072,49.194)">
            <g transform="matrix(6.5,0,0,6.5,4.51477,0)">
            </g>
            <text x="-4.515px" y="0px" style="font-family:'ArialMT', 'Arial', sans-serif;font-size:6.5px;fill:rgb(51,51,51);">PC</text>
        </g>
    </g>
    <g transform="matrix(3.747e-16,6.10915,-6.32733,4.16334e-16,1127.99,1290.39)">
        <g transform="matrix(0.918333,0,-2.70617e-18,0.56,-6.67666,20.1655)">
            <path d="M152,48.475L152,49.525C152,51.995 150.734,54 149.174,54L134.826,54C133.266,54 132,51.995 132,49.525L132,48.475C132,46.005 133.266,44 134.826,44L149.174,44C150.734,44 152,46.005 152,48.475Z" style="fill:rgb(221,221,221);"/>
            <path d="M152,48.475L152,49.525C152,51.995 150.734,54 149.174,54L134.826,54C133.266,54 132,51.995 132,49.525L132,48.475C132,46.005 133.266,44 134.826,44L149.174,44C150.734,44 152,46.005 152,48.475ZM149.816,48.475C149.816,47.913 149.529,47.457 149.174,47.457L134.826,47.457C134.471,47.457 134.184,47.913 134.184,48.475L134.184,49.525C134.184,50.087 134.471,50.543 134.826,50.543L149.174,50.543C149.529,50.543 149.816,50.087 149.816,49.525L149.816,48.475Z" style="fill:rgb(85,85,85);"/>
        </g>
        <g transform="matrix(0.793248,0,9.77754e-33,0.793248,106.639,49.451)">
            <g transform="matrix(6.5,0,0,6.5,7.58228,0)">
            </g>
            <text x="-7.582px" y="0px" style="font-family:'ArialMT', 'Arial', sans-serif;font-size:6.5px;fill:rgb(51,51,51);">PWR</text>
        </g>
    </g>
    <g transform="matrix(1,0,0,1,294.177,213.089)">
        <g transform="matrix(1,0,0,1,-5.68434e-13,23.1319)">
            <path d="M944.882,188.976L2598.43,188.976" style="fill:none;stroke:rgb(147,146,146);stroke-width:2.58px;stroke-linecap:round;stroke-linejoin:round;stroke-miterlimit:1.5;"/>
        </g>
        <g transform="matrix(0.654485,0,0,0.654485,325.977,81.7472)">
            <g transform="matrix(76.396,0,0,76.396,1100.55,165.354)">
            </g>
            <text x="944.882px" y="165.354px" style="font-family:'ArialMT', 'Arial', sans-serif;font-size:76.396px;fill:rgb(147,146,146);">T<tspan x="990.167px 1049.59px " y="165.354px 165.354px ">OP</tspan></text>
        </g>
    </g>
    <g transform="matrix(1,0,0,1,293.634,479.565)">
        <g transform="matrix(1,0,0,1,2.31873,3188.56)">
            <path d="M944.882,188.976L2598.43,188.976" style="fill:none;stroke:rgb(147,146,146);stroke-width:2.58px;stroke-linecap:round;stroke-linejoin:round;stroke-miterlimit:1.5;"/>
        </g>
        <g transform="matrix(0.654485,0,0,0.654485,327.618,3256.89)">
            <g transform="matrix(76.396,0,0,76.396,1100.55,165.354)">
            </g>
            <text x="944.882px" y="165.354px" style="font-family:'ArialMT', 'Arial', sans-serif;font-size:76.396px;fill:rgb(147,146,146);">T<tspan x="990.167px 1049.59px " y="165.354px 165.354px ">OP</tspan></text>
        </g>
    </g>
    <g transform="matrix(1,0,0,1,295.276,354.331)">
        <g transform="matrix(1,-0,-0,1,-295.276,-354.331)">
            <path d="M1265.72,1168.66L1240.84,1181.1L1265.72,1193.54L1265.72,1168.66Z" style="fill:rgb(147,146,146);"/>
            <path d="M2869.49,1168.66L2894.38,1181.1L2869.49,1193.54L2869.49,1168.66Z" style="fill:rgb(147,146,146);"/>
            <path d="M1260.74,1181.1L2874.47,1181.1" style="fill:none;stroke:rgb(147,146,146);stroke-width:2.58px;stroke-linecap:round;stroke-linejoin:round;stroke-miterlimit:1.5;"/>
        </g>
    </g>
    <g transform="matrix(0.654485,0,0,0.654485,1387.67,1049.26)">
        <g transform="matrix(76.396,0,0,76.396,1220.85,165.354)">
        </g>
        <text x="944.882px" y="165.354px" style="font-family:'ArialMT', 'Arial', sans-serif;font-size:76.396px;fill:rgb(147,146,146);">140 mm</text>
    </g>
    <g transform="matrix(1,0,0,1,295.276,354.331)">
        <g transform="matrix(1,-0,-0,1,-295.276,-354.331)">
            <path d="M1134.49,1324.1L1122.05,1299.21L1109.61,1324.1L1134.49,1324.1Z" style="fill:rgb(147,146,146);"/>
            <path d="M1134.49,3636.53L1122.05,3661.42L1109.61,3636.53L1134.49,3636.53Z" style="fill:rgb(147,146,146);"/>
            <path d="M1122.05,1319.12L1122.05,3641.51" style="fill:none;stroke:rgb(147,146,146);stroke-width:2.58px;stroke-linecap:round;stroke-linejoin:round;stroke-miterlimit:1.5;"/>
        </g>
    </g>
    <g transform="matrix(1,0,0,1,500.687,355.595)">
        <g transform="matrix(50,0,0,50,2299.05,376.867)">
        </g>
        <text x="2271.24px" y="376.867px" style="font-family:'ArialMT', 'Arial', sans-serif;font-size:50px;fill:rgb(75,75,75);">L</text>
    </g>
    <g transform="matrix(1,0,0,1,500.418,597.542)">
        <g transform="matrix(50,0,0,50,2307.35,376.867)">
        </g>
        <text x="2271.24px" y="376.867px" style="font-family:'ArialMT', 'Arial', sans-serif;font-size:50px;fill:rgb(75,75,75);">R</text>
    </g>
    <g transform="matrix(1,0,0,1,-963.251,355.595)">
        <g transform="matrix(50,0,0,50,2299.05,376.867)">
        </g>
        <text x="2271.24px" y="376.867px" style="font-family:'ArialMT', 'Arial', sans-serif;font-size:50px;fill:rgb(75,75,75);">L</text>
    </g>
    <g transform="matrix(1,0,0,1,-874.668,279.003)">
        <g transform="matrix(50,0,0,50,2299.05,376.867)">
        </g>
        <text x="2271.24px" y="376.867px" style="font-family:'ArialMT', 'Arial', sans-serif;font-size:50px;fill:rgb(75,75,75);stroke:rgb(147,146,146);stroke-width:1px;stroke-linejoin:round;stroke-miterlimit:2;">2</text>
    </g>
    <g transform="matrix(1,0,0,1,-634.954,279.003)">
        <g transform="matrix(50,0,0,50,2299.05,376.867)">
        </g>
        <text x="2271.24px" y="376.867px" style="font-family:'ArialMT', 'Arial', sans-serif;font-size:50px;fill:rgb(75,75,75);stroke:rgb(147,146,146);stroke-width:1px;stroke-linejoin:round;stroke-miterlimit:2;">1</text>
    </g>
    <g transform="matrix(1,0,0,1,185.447,279.003)">
        <g transform="matrix(50,0,0,50,2299.05,376.867)">
        </g>
        <text x="2271.24px" y="376.867px" style="font-family:'ArialMT', 'Arial', sans-serif;font-size:50px;fill:rgb(75,75,75);">2</text>
    </g>
    <g transform="matrix(1,0,0,1,425.161,279.003)">
        <g transform="matrix(50,0,0,50,2299.05,376.867)">
        </g>
        <text x="2271.24px" y="376.867px" style="font-family:'ArialMT', 'Arial', sans-serif;font-size:50px;fill:rgb(75,75,75);">1</text>
    </g>
    <g transform="matrix(1,0,0,1,-964.149,591.816)">
        <g transform="matrix(50,0,0,50,2307.35,376.867)">
        </g>
        <text x="2271.24px" y="376.867px" style="font-family:'ArialMT', 'Arial', sans-serif;font-size:50px;fill:rgb(75,75,75);">R</text>
    </g>
    <g transform="matrix(1,0,0,1,-789.287,479.432)">
        <g transform="matrix(50,0,0,50,2376.78,376.867)">
        </g>
        <text x="2271.24px" y="376.867px" style="font-family:'ArialMT', 'Arial', sans-serif;font-size:50px;fill:rgb(75,75,75);">OUT</text>
    </g>
    <g transform="matrix(1,0,0,1,-357.782,410.993)">
        <g transform="matrix(33.3333,0,0,33.3333,2341.6,376.867)">
        </g>
        <text x="2271.24px" y="376.867px" style="font-family:'ArialMT', 'Arial', sans-serif;font-size:33.333px;fill:rgb(75,75,75);">OUT</text>
    </g>
    <g transform="matrix(1,0,0,1,-104.155,411.638)">
        <g transform="matrix(33.3333,0,0,33.3333,2304.57,376.867)">
        </g>
        <text x="2271.24px" y="376.867px" style="font-family:'ArialMT', 'Arial', sans-serif;font-size:33.333px;fill:rgb(75,75,75);">IN</text>
    </g>
    <g transform="matrix(1,0,0,1,-258.89,353.337)">
        <g transform="matrix(50,0,0,50,2376.78,376.867)">
        </g>
        <text x="2271.24px" y="376.867px" style="font-family:'ArialMT', 'Arial', sans-serif;font-size:50px;fill:rgb(75,75,75);">MIDI</text>
    </g>
    <g transform="matrix(1,0,0,1,287.088,473.706)">
        <g transform="matrix(50,0,0,50,2321.24,376.867)">
        </g>
        <text x="2271.24px" y="376.867px" style="font-family:'ArialMT', 'Arial', sans-serif;font-size:50px;fill:rgb(75,75,75);">IN</text>
    </g>
    <path d="M379.215,1168.66L354.331,1181.1L379.215,1193.54L379.215,1168.66Z" style="fill:rgb(147,146,146);"/>
    <path d="M919.998,1168.66L944.882,1181.1L919.998,1193.54L919.998,1168.66Z" style="fill:rgb(147,146,146);"/>
    <path d="M374.238,1181.1L924.975,1181.1" style="fill:none;stroke:rgb(147,146,146);stroke-width:2.58px;stroke-linecap:round;stroke-linejoin:round;stroke-miterlimit:1.5;"/>
    <g transform="matrix(1,0,0,1,-71.3215,0.855196)">
        <g transform="matrix(50,0,0,50,786.902,1167.83)">
        </g>
        <text x="647.986px" y="1167.83px" style="font-family:'ArialMT', 'Arial', sans-serif;font-size:50px;fill:rgb(91,91,91);">50mm</text>
    </g>
    <g transform="matrix(1,0,0,1,-284.872,559.842)">
        <g transform="matrix(50,0,0,50,3182.09,544.374)">
        </g>
        <text x="2929.16px" y="544.374px" style="font-family:'ArialMT', 'Arial', sans-serif;font-size:50px;fill:rgb(91,91,91);">Back Panel</text>
    </g>
    <g transform="matrix(1,0,0,1,-264.121,2323.88)">
        <g transform="matrix(50,0,0,50,3147.31,1396.95)">
        </g>
        <text x="2924.92px" y="1396.95px" style="font-family:'ArialMT', 'Arial', sans-serif;font-size:50px;fill:rgb(91,91,91);">T<tspan x="2949.92px 2977.73px " y="1396.95px 1396.95px ">op</tspan> Panel</text>
    </g>
    <g transform="matrix(1,0,0,1,-342.52,2323.88)">
        <g transform="matrix(50,0,0,50,4110.24,1396.98)">
        </g>
        <text x="3851.74px" y="1396.98px" style="font-family:'ArialMT', 'Arial', sans-serif;font-size:50px;">Right Panel</text>
    </g>
    <g transform="matrix(1,0,0,1,-3188.33,2323.85)">
        <g transform="matrix(50,0,0,50,4110.24,1396.98)">
        </g>
        <text x="3885.07px" y="1396.98px" style="font-family:'ArialMT', 'Arial', sans-serif;font-size:50px;">Left Panel</text>
    </g>
    <g transform="matrix(1,0,0,1,-1216.54,3174.27)">
        <g transform="matrix(50,0,0,50,4110.24,1396.98)">
        </g>
        <text x="3851.76px" y="1396.98px" style="font-family:'ArialMT', 'Arial', sans-serif;font-size:50px;">Front Panel</text>
    </g>
</svg>
